<mxfile host="Electron" modified="2023-05-22T08:29:56.266Z" agent="Mozilla/5.0 (X11; Linux x86_64) AppleWebKit/537.36 (KHTML, like Gecko) draw.io/21.1.2 Chrome/106.0.5249.199 Electron/21.4.3 Safari/537.36" etag="D5uzLpeVp7_jOiL9MsZi" version="21.1.2" type="device">
  <diagram name="Página-1" id="GLeD6BJypVKtuYQKgfre">
    <mxGraphModel dx="2876" dy="1116" grid="1" gridSize="10" guides="1" tooltips="1" connect="1" arrows="1" fold="1" page="1" pageScale="1" pageWidth="827" pageHeight="1169" math="0" shadow="0">
      <root>
        <mxCell id="0" />
        <mxCell id="1" parent="0" />
        <mxCell id="dKn69-0n__2WGSJopjcO-1" value="Deseja-se fazer um sistema para gerenciar informações de uma companhia aérea. Para isto, deve-se manter um cadastro das pessoas no sistema, sendo que é possível ter passageiros e pilotos. Toda pessoa possui cpf, nome e sexo, enquanto que pilotos possuem um número de licença de voo, e os passageiros possuem data de nascimento e um ou mais telefones. Quando um passageiro faz uma reserva de voo, deve ser registrado o assento deste passageiro no voo. O sistema também deve manter a informação de quem foi o piloto de cada voo, além do&lt;br&gt;número, data e horário do voo." style="text;whiteSpace=wrap;html=1;" vertex="1" parent="1">
          <mxGeometry x="14" y="10" width="800" height="90" as="geometry" />
        </mxCell>
        <mxCell id="dKn69-0n__2WGSJopjcO-55" style="edgeStyle=orthogonalEdgeStyle;rounded=0;orthogonalLoop=1;jettySize=auto;html=1;endArrow=none;endFill=0;" edge="1" parent="1" source="dKn69-0n__2WGSJopjcO-2" target="dKn69-0n__2WGSJopjcO-30">
          <mxGeometry relative="1" as="geometry" />
        </mxCell>
        <mxCell id="dKn69-0n__2WGSJopjcO-69" value="- pilotando" style="edgeLabel;html=1;align=center;verticalAlign=middle;resizable=0;points=[];" vertex="1" connectable="0" parent="dKn69-0n__2WGSJopjcO-55">
          <mxGeometry x="0.807" y="1" relative="1" as="geometry">
            <mxPoint x="29" y="-2" as="offset" />
          </mxGeometry>
        </mxCell>
        <mxCell id="dKn69-0n__2WGSJopjcO-70" value="*" style="edgeLabel;html=1;align=center;verticalAlign=middle;resizable=0;points=[];" vertex="1" connectable="0" parent="dKn69-0n__2WGSJopjcO-55">
          <mxGeometry x="0.807" y="1" relative="1" as="geometry">
            <mxPoint x="-9" y="-2" as="offset" />
          </mxGeometry>
        </mxCell>
        <mxCell id="dKn69-0n__2WGSJopjcO-71" value="1" style="edgeLabel;html=1;align=center;verticalAlign=middle;resizable=0;points=[];" vertex="1" connectable="0" parent="dKn69-0n__2WGSJopjcO-55">
          <mxGeometry x="-0.8041" y="-2" relative="1" as="geometry">
            <mxPoint x="-8" y="2" as="offset" />
          </mxGeometry>
        </mxCell>
        <mxCell id="dKn69-0n__2WGSJopjcO-72" value="pessoa" style="edgeLabel;html=1;align=center;verticalAlign=middle;resizable=0;points=[];" vertex="1" connectable="0" parent="dKn69-0n__2WGSJopjcO-55">
          <mxGeometry x="-0.7896" y="2" relative="1" as="geometry">
            <mxPoint x="18" as="offset" />
          </mxGeometry>
        </mxCell>
        <mxCell id="dKn69-0n__2WGSJopjcO-2" value="Pessoa" style="swimlane;fontStyle=0;childLayout=stackLayout;horizontal=1;startSize=26;fillColor=none;horizontalStack=0;resizeParent=1;resizeParentMax=0;resizeLast=0;collapsible=1;marginBottom=0;whiteSpace=wrap;html=1;" vertex="1" parent="1">
          <mxGeometry x="250" y="130" width="140" height="104" as="geometry" />
        </mxCell>
        <mxCell id="dKn69-0n__2WGSJopjcO-3" value="- &amp;lt;&amp;lt;oid&amp;gt;&amp;gt; cpf: String" style="text;strokeColor=none;fillColor=none;align=left;verticalAlign=top;spacingLeft=4;spacingRight=4;overflow=hidden;rotatable=0;points=[[0,0.5],[1,0.5]];portConstraint=eastwest;whiteSpace=wrap;html=1;" vertex="1" parent="dKn69-0n__2WGSJopjcO-2">
          <mxGeometry y="26" width="140" height="26" as="geometry" />
        </mxCell>
        <mxCell id="dKn69-0n__2WGSJopjcO-4" value="- nome: String" style="text;strokeColor=none;fillColor=none;align=left;verticalAlign=top;spacingLeft=4;spacingRight=4;overflow=hidden;rotatable=0;points=[[0,0.5],[1,0.5]];portConstraint=eastwest;whiteSpace=wrap;html=1;" vertex="1" parent="dKn69-0n__2WGSJopjcO-2">
          <mxGeometry y="52" width="140" height="26" as="geometry" />
        </mxCell>
        <mxCell id="dKn69-0n__2WGSJopjcO-5" value="- sexo: Sexo" style="text;strokeColor=none;fillColor=none;align=left;verticalAlign=top;spacingLeft=4;spacingRight=4;overflow=hidden;rotatable=0;points=[[0,0.5],[1,0.5]];portConstraint=eastwest;whiteSpace=wrap;html=1;" vertex="1" parent="dKn69-0n__2WGSJopjcO-2">
          <mxGeometry y="78" width="140" height="26" as="geometry" />
        </mxCell>
        <mxCell id="dKn69-0n__2WGSJopjcO-6" value="TYPES" style="swimlane;whiteSpace=wrap;html=1;" vertex="1" parent="1">
          <mxGeometry x="-266" y="120" width="280" height="170" as="geometry" />
        </mxCell>
        <mxCell id="dKn69-0n__2WGSJopjcO-8" value="&amp;lt;&amp;lt;enumeration&amp;gt;&amp;gt;&lt;br&gt;Sexo" style="swimlane;fontStyle=0;childLayout=stackLayout;horizontal=1;startSize=30;fillColor=none;horizontalStack=0;resizeParent=1;resizeParentMax=0;resizeLast=0;collapsible=1;marginBottom=0;whiteSpace=wrap;html=1;" vertex="1" parent="dKn69-0n__2WGSJopjcO-6">
          <mxGeometry x="30" y="50" width="210" height="82" as="geometry" />
        </mxCell>
        <mxCell id="dKn69-0n__2WGSJopjcO-9" value="&amp;lt;&amp;lt;enum constant&amp;gt;&amp;gt; MASCULINO: 1" style="text;strokeColor=none;fillColor=none;align=left;verticalAlign=top;spacingLeft=4;spacingRight=4;overflow=hidden;rotatable=0;points=[[0,0.5],[1,0.5]];portConstraint=eastwest;whiteSpace=wrap;html=1;" vertex="1" parent="dKn69-0n__2WGSJopjcO-8">
          <mxGeometry y="30" width="210" height="26" as="geometry" />
        </mxCell>
        <mxCell id="dKn69-0n__2WGSJopjcO-12" value="&amp;lt;&amp;lt;enum constant&amp;gt;&amp;gt; FEMININO: 2" style="text;strokeColor=none;fillColor=none;align=left;verticalAlign=top;spacingLeft=4;spacingRight=4;overflow=hidden;rotatable=0;points=[[0,0.5],[1,0.5]];portConstraint=eastwest;whiteSpace=wrap;html=1;" vertex="1" parent="dKn69-0n__2WGSJopjcO-8">
          <mxGeometry y="56" width="210" height="26" as="geometry" />
        </mxCell>
        <mxCell id="dKn69-0n__2WGSJopjcO-13" value="Passageiro" style="swimlane;fontStyle=0;childLayout=stackLayout;horizontal=1;startSize=26;fillColor=none;horizontalStack=0;resizeParent=1;resizeParentMax=0;resizeLast=0;collapsible=1;marginBottom=0;whiteSpace=wrap;html=1;" vertex="1" parent="1">
          <mxGeometry x="590" y="353" width="140" height="52" as="geometry" />
        </mxCell>
        <mxCell id="dKn69-0n__2WGSJopjcO-15" value="- dataNascimento: Date" style="text;strokeColor=none;fillColor=none;align=left;verticalAlign=top;spacingLeft=4;spacingRight=4;overflow=hidden;rotatable=0;points=[[0,0.5],[1,0.5]];portConstraint=eastwest;whiteSpace=wrap;html=1;" vertex="1" parent="dKn69-0n__2WGSJopjcO-13">
          <mxGeometry y="26" width="140" height="26" as="geometry" />
        </mxCell>
        <mxCell id="dKn69-0n__2WGSJopjcO-17" value="Piloto" style="swimlane;fontStyle=0;childLayout=stackLayout;horizontal=1;startSize=26;fillColor=none;horizontalStack=0;resizeParent=1;resizeParentMax=0;resizeLast=0;collapsible=1;marginBottom=0;whiteSpace=wrap;html=1;" vertex="1" parent="1">
          <mxGeometry x="80" y="250" width="140" height="52" as="geometry" />
        </mxCell>
        <mxCell id="dKn69-0n__2WGSJopjcO-56" style="edgeStyle=orthogonalEdgeStyle;rounded=0;orthogonalLoop=1;jettySize=auto;html=1;dashed=1;endArrow=none;endFill=0;" edge="1" parent="dKn69-0n__2WGSJopjcO-17">
          <mxGeometry relative="1" as="geometry">
            <mxPoint x="240" y="39.000000000000114" as="targetPoint" />
            <mxPoint x="140" y="39.000000000000114" as="sourcePoint" />
          </mxGeometry>
        </mxCell>
        <mxCell id="dKn69-0n__2WGSJopjcO-20" value="- licensa: String" style="text;strokeColor=none;fillColor=none;align=left;verticalAlign=top;spacingLeft=4;spacingRight=4;overflow=hidden;rotatable=0;points=[[0,0.5],[1,0.5]];portConstraint=eastwest;whiteSpace=wrap;html=1;" vertex="1" parent="dKn69-0n__2WGSJopjcO-17">
          <mxGeometry y="26" width="140" height="26" as="geometry" />
        </mxCell>
        <mxCell id="dKn69-0n__2WGSJopjcO-57" style="edgeStyle=orthogonalEdgeStyle;rounded=0;orthogonalLoop=1;jettySize=auto;html=1;endArrow=none;endFill=0;" edge="1" parent="1" source="dKn69-0n__2WGSJopjcO-21" target="dKn69-0n__2WGSJopjcO-13">
          <mxGeometry relative="1" as="geometry" />
        </mxCell>
        <mxCell id="dKn69-0n__2WGSJopjcO-73" value="1" style="edgeLabel;html=1;align=center;verticalAlign=middle;resizable=0;points=[];" vertex="1" connectable="0" parent="dKn69-0n__2WGSJopjcO-57">
          <mxGeometry x="0.6247" relative="1" as="geometry">
            <mxPoint x="-17" y="-9" as="offset" />
          </mxGeometry>
        </mxCell>
        <mxCell id="dKn69-0n__2WGSJopjcO-74" value="- passageiro" style="edgeLabel;html=1;align=center;verticalAlign=middle;resizable=0;points=[];" vertex="1" connectable="0" parent="dKn69-0n__2WGSJopjcO-57">
          <mxGeometry x="0.6892" relative="1" as="geometry">
            <mxPoint x="13" y="8" as="offset" />
          </mxGeometry>
        </mxCell>
        <mxCell id="dKn69-0n__2WGSJopjcO-75" value="1..*" style="edgeLabel;html=1;align=center;verticalAlign=middle;resizable=0;points=[];" vertex="1" connectable="0" parent="dKn69-0n__2WGSJopjcO-57">
          <mxGeometry x="-0.8147" y="-1" relative="1" as="geometry">
            <mxPoint y="-8" as="offset" />
          </mxGeometry>
        </mxCell>
        <mxCell id="dKn69-0n__2WGSJopjcO-76" value="- telefones" style="edgeLabel;html=1;align=center;verticalAlign=middle;resizable=0;points=[];" vertex="1" connectable="0" parent="dKn69-0n__2WGSJopjcO-57">
          <mxGeometry x="-0.7687" relative="1" as="geometry">
            <mxPoint x="-14" y="11" as="offset" />
          </mxGeometry>
        </mxCell>
        <mxCell id="dKn69-0n__2WGSJopjcO-21" value="Telefone" style="swimlane;fontStyle=0;childLayout=stackLayout;horizontal=1;startSize=26;fillColor=none;horizontalStack=0;resizeParent=1;resizeParentMax=0;resizeLast=0;collapsible=1;marginBottom=0;whiteSpace=wrap;html=1;" vertex="1" parent="1">
          <mxGeometry x="870" y="353" width="140" height="52" as="geometry" />
        </mxCell>
        <mxCell id="dKn69-0n__2WGSJopjcO-22" value="- numero: String" style="text;strokeColor=none;fillColor=none;align=left;verticalAlign=top;spacingLeft=4;spacingRight=4;overflow=hidden;rotatable=0;points=[[0,0.5],[1,0.5]];portConstraint=eastwest;whiteSpace=wrap;html=1;" vertex="1" parent="dKn69-0n__2WGSJopjcO-21">
          <mxGeometry y="26" width="140" height="26" as="geometry" />
        </mxCell>
        <mxCell id="dKn69-0n__2WGSJopjcO-30" value="Voo" style="swimlane;fontStyle=0;childLayout=stackLayout;horizontal=1;startSize=26;fillColor=none;horizontalStack=0;resizeParent=1;resizeParentMax=0;resizeLast=0;collapsible=1;marginBottom=0;whiteSpace=wrap;html=1;" vertex="1" parent="1">
          <mxGeometry x="240" y="340" width="160" height="78" as="geometry" />
        </mxCell>
        <mxCell id="dKn69-0n__2WGSJopjcO-31" value="- &amp;lt;&amp;lt;oid&amp;gt;&amp;gt; numero: Integer" style="text;strokeColor=none;fillColor=none;align=left;verticalAlign=top;spacingLeft=4;spacingRight=4;overflow=hidden;rotatable=0;points=[[0,0.5],[1,0.5]];portConstraint=eastwest;whiteSpace=wrap;html=1;" vertex="1" parent="dKn69-0n__2WGSJopjcO-30">
          <mxGeometry y="26" width="160" height="26" as="geometry" />
        </mxCell>
        <mxCell id="dKn69-0n__2WGSJopjcO-32" value="- dataHora: Date" style="text;strokeColor=none;fillColor=none;align=left;verticalAlign=top;spacingLeft=4;spacingRight=4;overflow=hidden;rotatable=0;points=[[0,0.5],[1,0.5]];portConstraint=eastwest;whiteSpace=wrap;html=1;" vertex="1" parent="dKn69-0n__2WGSJopjcO-30">
          <mxGeometry y="52" width="160" height="26" as="geometry" />
        </mxCell>
        <mxCell id="dKn69-0n__2WGSJopjcO-59" style="edgeStyle=orthogonalEdgeStyle;rounded=0;orthogonalLoop=1;jettySize=auto;html=1;endArrow=none;endFill=0;dashed=1;" edge="1" parent="1" source="dKn69-0n__2WGSJopjcO-40">
          <mxGeometry relative="1" as="geometry">
            <mxPoint x="500" y="379.9999999999999" as="targetPoint" />
          </mxGeometry>
        </mxCell>
        <mxCell id="dKn69-0n__2WGSJopjcO-40" value="Reserva" style="swimlane;fontStyle=0;childLayout=stackLayout;horizontal=1;startSize=26;fillColor=none;horizontalStack=0;resizeParent=1;resizeParentMax=0;resizeLast=0;collapsible=1;marginBottom=0;whiteSpace=wrap;html=1;" vertex="1" parent="1">
          <mxGeometry x="430" y="450" width="140" height="52" as="geometry" />
        </mxCell>
        <mxCell id="dKn69-0n__2WGSJopjcO-41" value="- assento: String" style="text;strokeColor=none;fillColor=none;align=left;verticalAlign=top;spacingLeft=4;spacingRight=4;overflow=hidden;rotatable=0;points=[[0,0.5],[1,0.5]];portConstraint=eastwest;whiteSpace=wrap;html=1;" vertex="1" parent="dKn69-0n__2WGSJopjcO-40">
          <mxGeometry y="26" width="140" height="26" as="geometry" />
        </mxCell>
        <mxCell id="dKn69-0n__2WGSJopjcO-49" value="2 pilotos, 3 passageiros, 2 voos. Pelo menos um passageiro com mais de um telefone. Pelo menos um voo com mais de um passageiro. Um dos pilotos deve ser passageiro de um voo (obviamente não pilotado por ele)." style="text;whiteSpace=wrap;html=1;" vertex="1" parent="1">
          <mxGeometry x="150" y="540" width="560" height="60" as="geometry" />
        </mxCell>
        <mxCell id="dKn69-0n__2WGSJopjcO-58" style="edgeStyle=orthogonalEdgeStyle;rounded=0;orthogonalLoop=1;jettySize=auto;html=1;endArrow=none;endFill=0;" edge="1" parent="1" source="dKn69-0n__2WGSJopjcO-31" target="dKn69-0n__2WGSJopjcO-13">
          <mxGeometry relative="1" as="geometry" />
        </mxCell>
        <mxCell id="dKn69-0n__2WGSJopjcO-77" value="*" style="edgeLabel;html=1;align=center;verticalAlign=middle;resizable=0;points=[];" vertex="1" connectable="0" parent="dKn69-0n__2WGSJopjcO-58">
          <mxGeometry x="-0.9226" y="2" relative="1" as="geometry">
            <mxPoint x="-1" y="-7" as="offset" />
          </mxGeometry>
        </mxCell>
        <mxCell id="dKn69-0n__2WGSJopjcO-78" value="- voos" style="edgeLabel;html=1;align=center;verticalAlign=middle;resizable=0;points=[];" vertex="1" connectable="0" parent="dKn69-0n__2WGSJopjcO-58">
          <mxGeometry x="-0.9226" relative="1" as="geometry">
            <mxPoint x="10" y="9" as="offset" />
          </mxGeometry>
        </mxCell>
        <mxCell id="dKn69-0n__2WGSJopjcO-79" value="*" style="edgeLabel;html=1;align=center;verticalAlign=middle;resizable=0;points=[];" vertex="1" connectable="0" parent="dKn69-0n__2WGSJopjcO-58">
          <mxGeometry x="0.911" relative="1" as="geometry">
            <mxPoint y="-9" as="offset" />
          </mxGeometry>
        </mxCell>
        <mxCell id="dKn69-0n__2WGSJopjcO-80" value="- passageiros" style="edgeLabel;html=1;align=center;verticalAlign=middle;resizable=0;points=[];" vertex="1" connectable="0" parent="dKn69-0n__2WGSJopjcO-58">
          <mxGeometry x="0.782" y="2" relative="1" as="geometry">
            <mxPoint x="-19" y="13" as="offset" />
          </mxGeometry>
        </mxCell>
        <mxCell id="dKn69-0n__2WGSJopjcO-61" style="edgeStyle=orthogonalEdgeStyle;rounded=0;orthogonalLoop=1;jettySize=auto;html=1;endArrow=none;endFill=0;" edge="1" parent="1" source="dKn69-0n__2WGSJopjcO-3" target="dKn69-0n__2WGSJopjcO-13">
          <mxGeometry relative="1" as="geometry" />
        </mxCell>
        <mxCell id="dKn69-0n__2WGSJopjcO-62" value="0..1" style="edgeLabel;html=1;align=center;verticalAlign=middle;resizable=0;points=[];" vertex="1" connectable="0" parent="dKn69-0n__2WGSJopjcO-61">
          <mxGeometry x="0.9451" y="-1" relative="1" as="geometry">
            <mxPoint x="21" y="-1" as="offset" />
          </mxGeometry>
        </mxCell>
        <mxCell id="dKn69-0n__2WGSJopjcO-63" value="- passageiro" style="edgeLabel;html=1;align=center;verticalAlign=middle;resizable=0;points=[];" vertex="1" connectable="0" parent="dKn69-0n__2WGSJopjcO-61">
          <mxGeometry x="0.9417" y="1" relative="1" as="geometry">
            <mxPoint x="-41" as="offset" />
          </mxGeometry>
        </mxCell>
        <mxCell id="dKn69-0n__2WGSJopjcO-64" value="- pessoa" style="edgeLabel;html=1;align=center;verticalAlign=middle;resizable=0;points=[];" vertex="1" connectable="0" parent="dKn69-0n__2WGSJopjcO-61">
          <mxGeometry x="-0.9458" relative="1" as="geometry">
            <mxPoint x="12" y="-12" as="offset" />
          </mxGeometry>
        </mxCell>
        <mxCell id="dKn69-0n__2WGSJopjcO-65" value="1" style="edgeLabel;html=1;align=center;verticalAlign=middle;resizable=0;points=[];" vertex="1" connectable="0" parent="dKn69-0n__2WGSJopjcO-61">
          <mxGeometry x="-0.9119" y="-1" relative="1" as="geometry">
            <mxPoint x="-10" y="10" as="offset" />
          </mxGeometry>
        </mxCell>
        <mxCell id="dKn69-0n__2WGSJopjcO-113" style="edgeStyle=orthogonalEdgeStyle;rounded=0;orthogonalLoop=1;jettySize=auto;html=1;endArrow=none;endFill=0;" edge="1" parent="1" source="dKn69-0n__2WGSJopjcO-82" target="dKn69-0n__2WGSJopjcO-90">
          <mxGeometry relative="1" as="geometry" />
        </mxCell>
        <mxCell id="dKn69-0n__2WGSJopjcO-82" value="&lt;p style=&quot;margin:0px;margin-top:4px;text-align:center;text-decoration:underline;&quot;&gt;&lt;b&gt;piloto1:Piloto&lt;/b&gt;&lt;/p&gt;&lt;hr&gt;&lt;p style=&quot;margin:0px;margin-left:8px;&quot;&gt;&lt;span style=&quot;background-color: initial;&quot;&gt;licensa&amp;nbsp;= &quot;1245A-6&quot;&lt;/span&gt;&lt;br&gt;&lt;/p&gt;" style="verticalAlign=top;align=left;overflow=fill;fontSize=12;fontFamily=Helvetica;html=1;whiteSpace=wrap;" vertex="1" parent="1">
          <mxGeometry x="50" y="705" width="160" height="50" as="geometry" />
        </mxCell>
        <mxCell id="dKn69-0n__2WGSJopjcO-115" style="edgeStyle=orthogonalEdgeStyle;rounded=0;orthogonalLoop=1;jettySize=auto;html=1;endArrow=none;endFill=0;" edge="1" parent="1" source="dKn69-0n__2WGSJopjcO-84" target="dKn69-0n__2WGSJopjcO-91">
          <mxGeometry relative="1" as="geometry" />
        </mxCell>
        <mxCell id="dKn69-0n__2WGSJopjcO-117" value="" style="edgeStyle=orthogonalEdgeStyle;rounded=0;orthogonalLoop=1;jettySize=auto;html=1;" edge="1" parent="1" source="dKn69-0n__2WGSJopjcO-84">
          <mxGeometry relative="1" as="geometry">
            <mxPoint x="-10" y="1080" as="targetPoint" />
          </mxGeometry>
        </mxCell>
        <mxCell id="dKn69-0n__2WGSJopjcO-84" value="&lt;p style=&quot;margin:0px;margin-top:4px;text-align:center;text-decoration:underline;&quot;&gt;&lt;b&gt;piloto2:Piloto&lt;/b&gt;&lt;/p&gt;&lt;hr&gt;&lt;p style=&quot;margin:0px;margin-left:8px;&quot;&gt;&lt;span style=&quot;background-color: initial;&quot;&gt;licensa&amp;nbsp;= &quot;5468B-6&quot;&lt;/span&gt;&lt;br&gt;&lt;/p&gt;" style="verticalAlign=top;align=left;overflow=fill;fontSize=12;fontFamily=Helvetica;html=1;whiteSpace=wrap;" vertex="1" parent="1">
          <mxGeometry x="70" y="1055" width="160" height="50" as="geometry" />
        </mxCell>
        <mxCell id="dKn69-0n__2WGSJopjcO-85" value="&lt;p style=&quot;margin:0px;margin-top:4px;text-align:center;text-decoration:underline;&quot;&gt;&lt;b&gt;pessoa1:Pessoa&lt;/b&gt;&lt;/p&gt;&lt;hr&gt;&lt;p style=&quot;border-color: var(--border-color); margin: 0px 0px 0px 8px;&quot;&gt;cpf = &quot;056.711.456-95&quot;&lt;/p&gt;&lt;p style=&quot;margin:0px;margin-left:8px;&quot;&gt;nome = &quot;Maria Rodolfa&quot;&lt;/p&gt;&lt;p style=&quot;margin:0px;margin-left:8px;&quot;&gt;Sexo = &#39;F&#39;&lt;br&gt;&lt;/p&gt;" style="verticalAlign=top;align=left;overflow=fill;fontSize=12;fontFamily=Helvetica;html=1;whiteSpace=wrap;" vertex="1" parent="1">
          <mxGeometry x="1033" y="620" width="160" height="80" as="geometry" />
        </mxCell>
        <mxCell id="dKn69-0n__2WGSJopjcO-112" style="edgeStyle=orthogonalEdgeStyle;rounded=0;orthogonalLoop=1;jettySize=auto;html=1;endArrow=none;endFill=0;" edge="1" parent="1" source="dKn69-0n__2WGSJopjcO-86" target="dKn69-0n__2WGSJopjcO-82">
          <mxGeometry relative="1" as="geometry" />
        </mxCell>
        <mxCell id="dKn69-0n__2WGSJopjcO-119" style="edgeStyle=orthogonalEdgeStyle;rounded=0;orthogonalLoop=1;jettySize=auto;html=1;endArrow=none;endFill=0;" edge="1" parent="1" source="dKn69-0n__2WGSJopjcO-86" target="dKn69-0n__2WGSJopjcO-118">
          <mxGeometry relative="1" as="geometry" />
        </mxCell>
        <mxCell id="dKn69-0n__2WGSJopjcO-86" value="&lt;p style=&quot;margin:0px;margin-top:4px;text-align:center;text-decoration:underline;&quot;&gt;&lt;b&gt;pessoa1:Pessoa&lt;/b&gt;&lt;/p&gt;&lt;hr&gt;&lt;p style=&quot;border-color: var(--border-color); margin: 0px 0px 0px 8px;&quot;&gt;cpf = &quot;056.054.261-47&quot;&lt;/p&gt;&lt;p style=&quot;margin:0px;margin-left:8px;&quot;&gt;nome = &quot;Péricles Silvestre&quot;&lt;/p&gt;&lt;p style=&quot;margin:0px;margin-left:8px;&quot;&gt;Sexo = &#39;M&#39;&lt;br&gt;&lt;/p&gt;" style="verticalAlign=top;align=left;overflow=fill;fontSize=12;fontFamily=Helvetica;html=1;whiteSpace=wrap;" vertex="1" parent="1">
          <mxGeometry x="-150" y="690" width="160" height="80" as="geometry" />
        </mxCell>
        <mxCell id="dKn69-0n__2WGSJopjcO-87" value="&lt;p style=&quot;margin:0px;margin-top:4px;text-align:center;text-decoration:underline;&quot;&gt;&lt;b&gt;pessoa1:Pessoa&lt;/b&gt;&lt;/p&gt;&lt;hr&gt;&lt;p style=&quot;border-color: var(--border-color); margin: 0px 0px 0px 8px;&quot;&gt;cpf = &quot;012.345.569-98&quot;&lt;/p&gt;&lt;p style=&quot;margin:0px;margin-left:8px;&quot;&gt;nome = &quot;Pablo Escobar&quot;&lt;/p&gt;&lt;p style=&quot;margin:0px;margin-left:8px;&quot;&gt;Sexo = &#39;M&#39;&lt;br&gt;&lt;/p&gt;" style="verticalAlign=top;align=left;overflow=fill;fontSize=12;fontFamily=Helvetica;html=1;whiteSpace=wrap;" vertex="1" parent="1">
          <mxGeometry x="1073" y="830" width="160" height="80" as="geometry" />
        </mxCell>
        <mxCell id="dKn69-0n__2WGSJopjcO-114" style="edgeStyle=orthogonalEdgeStyle;rounded=0;orthogonalLoop=1;jettySize=auto;html=1;endArrow=none;endFill=0;" edge="1" parent="1" source="dKn69-0n__2WGSJopjcO-88" target="dKn69-0n__2WGSJopjcO-84">
          <mxGeometry relative="1" as="geometry" />
        </mxCell>
        <mxCell id="dKn69-0n__2WGSJopjcO-88" value="&lt;p style=&quot;margin:0px;margin-top:4px;text-align:center;text-decoration:underline;&quot;&gt;&lt;b&gt;pessoa2:Pessoa&lt;/b&gt;&lt;/p&gt;&lt;hr&gt;&lt;p style=&quot;border-color: var(--border-color); margin: 0px 0px 0px 8px;&quot;&gt;cpf = &quot;032.784.333.18&quot;&lt;/p&gt;&lt;p style=&quot;margin:0px;margin-left:8px;&quot;&gt;nome = &quot;Pastel de Trigo&quot;&lt;/p&gt;&lt;p style=&quot;margin:0px;margin-left:8px;&quot;&gt;Sexo = &#39;F&#39;&lt;br&gt;&lt;/p&gt;" style="verticalAlign=top;align=left;overflow=fill;fontSize=12;fontFamily=Helvetica;html=1;whiteSpace=wrap;" vertex="1" parent="1">
          <mxGeometry x="-130" y="1040" width="160" height="80" as="geometry" />
        </mxCell>
        <mxCell id="dKn69-0n__2WGSJopjcO-89" value="&lt;p style=&quot;margin:0px;margin-top:4px;text-align:center;text-decoration:underline;&quot;&gt;&lt;b&gt;pessoa1:Pessoa&lt;/b&gt;&lt;/p&gt;&lt;hr&gt;&lt;p style=&quot;border-color: var(--border-color); margin: 0px 0px 0px 8px;&quot;&gt;cpf = &quot;116.879.346-52&quot;&lt;/p&gt;&lt;p style=&quot;margin:0px;margin-left:8px;&quot;&gt;nome = &quot;Lindolfo Aranha&quot;&lt;/p&gt;&lt;p style=&quot;margin:0px;margin-left:8px;&quot;&gt;Sexo = &#39;M&#39;&lt;br&gt;&lt;/p&gt;" style="verticalAlign=top;align=left;overflow=fill;fontSize=12;fontFamily=Helvetica;html=1;whiteSpace=wrap;" vertex="1" parent="1">
          <mxGeometry x="1033" y="1040" width="160" height="80" as="geometry" />
        </mxCell>
        <mxCell id="dKn69-0n__2WGSJopjcO-90" value="&lt;p style=&quot;margin:0px;margin-top:4px;text-align:center;text-decoration:underline;&quot;&gt;&lt;b&gt;voo1: Voo&lt;/b&gt;&lt;/p&gt;&lt;hr&gt;&lt;p style=&quot;margin:0px;margin-left:8px;&quot;&gt;numero = 7846&lt;/p&gt;&lt;p style=&quot;margin:0px;margin-left:8px;&quot;&gt;dataHora = 01/01/2001 12:00:00&lt;br&gt;&lt;br&gt;&lt;/p&gt;" style="verticalAlign=top;align=left;overflow=fill;fontSize=12;fontFamily=Helvetica;html=1;whiteSpace=wrap;" vertex="1" parent="1">
          <mxGeometry x="250" y="695" width="190" height="70" as="geometry" />
        </mxCell>
        <mxCell id="dKn69-0n__2WGSJopjcO-130" style="edgeStyle=orthogonalEdgeStyle;rounded=0;orthogonalLoop=1;jettySize=auto;html=1;endArrow=none;endFill=0;" edge="1" parent="1" source="dKn69-0n__2WGSJopjcO-91" target="dKn69-0n__2WGSJopjcO-129">
          <mxGeometry relative="1" as="geometry" />
        </mxCell>
        <mxCell id="dKn69-0n__2WGSJopjcO-91" value="&lt;p style=&quot;margin:0px;margin-top:4px;text-align:center;text-decoration:underline;&quot;&gt;&lt;b&gt;voo2: Voo&lt;/b&gt;&lt;/p&gt;&lt;hr&gt;&lt;p style=&quot;margin:0px;margin-left:8px;&quot;&gt;numero = 6923&lt;/p&gt;&lt;p style=&quot;margin:0px;margin-left:8px;&quot;&gt;dataHora = 16/01/2001 07:00:00&lt;br&gt;&lt;br&gt;&lt;/p&gt;" style="verticalAlign=top;align=left;overflow=fill;fontSize=12;fontFamily=Helvetica;html=1;whiteSpace=wrap;" vertex="1" parent="1">
          <mxGeometry x="270" y="1045" width="190" height="70" as="geometry" />
        </mxCell>
        <mxCell id="dKn69-0n__2WGSJopjcO-96" style="edgeStyle=orthogonalEdgeStyle;rounded=0;orthogonalLoop=1;jettySize=auto;html=1;endArrow=none;endFill=0;" edge="1" parent="1" source="dKn69-0n__2WGSJopjcO-92" target="dKn69-0n__2WGSJopjcO-85">
          <mxGeometry relative="1" as="geometry" />
        </mxCell>
        <mxCell id="dKn69-0n__2WGSJopjcO-104" style="edgeStyle=orthogonalEdgeStyle;rounded=0;orthogonalLoop=1;jettySize=auto;html=1;endArrow=none;endFill=0;" edge="1" parent="1" source="dKn69-0n__2WGSJopjcO-92" target="dKn69-0n__2WGSJopjcO-99">
          <mxGeometry relative="1" as="geometry" />
        </mxCell>
        <mxCell id="dKn69-0n__2WGSJopjcO-105" style="edgeStyle=orthogonalEdgeStyle;rounded=0;orthogonalLoop=1;jettySize=auto;html=1;endArrow=none;endFill=0;" edge="1" parent="1" source="dKn69-0n__2WGSJopjcO-92" target="dKn69-0n__2WGSJopjcO-101">
          <mxGeometry relative="1" as="geometry">
            <Array as="points">
              <mxPoint x="870" y="710" />
              <mxPoint x="1020" y="710" />
            </Array>
          </mxGeometry>
        </mxCell>
        <mxCell id="dKn69-0n__2WGSJopjcO-124" style="edgeStyle=orthogonalEdgeStyle;rounded=0;orthogonalLoop=1;jettySize=auto;html=1;endArrow=none;endFill=0;" edge="1" parent="1" source="dKn69-0n__2WGSJopjcO-92" target="dKn69-0n__2WGSJopjcO-123">
          <mxGeometry relative="1" as="geometry" />
        </mxCell>
        <mxCell id="dKn69-0n__2WGSJopjcO-92" value="&lt;p style=&quot;margin:0px;margin-top:4px;text-align:center;text-decoration:underline;&quot;&gt;&lt;b&gt;passageiro1: Passageiro&lt;/b&gt;&lt;/p&gt;&lt;hr&gt;&lt;p style=&quot;margin:0px;margin-left:8px;&quot;&gt;dataNascimento = 01/01/1979&lt;/p&gt;" style="verticalAlign=top;align=left;overflow=fill;fontSize=12;fontFamily=Helvetica;html=1;whiteSpace=wrap;" vertex="1" parent="1">
          <mxGeometry x="740" y="630" width="180" height="60" as="geometry" />
        </mxCell>
        <mxCell id="dKn69-0n__2WGSJopjcO-97" style="edgeStyle=orthogonalEdgeStyle;rounded=0;orthogonalLoop=1;jettySize=auto;html=1;endArrow=none;endFill=0;" edge="1" parent="1" source="dKn69-0n__2WGSJopjcO-93" target="dKn69-0n__2WGSJopjcO-87">
          <mxGeometry relative="1" as="geometry" />
        </mxCell>
        <mxCell id="dKn69-0n__2WGSJopjcO-103" style="edgeStyle=orthogonalEdgeStyle;rounded=0;orthogonalLoop=1;jettySize=auto;html=1;endArrow=none;endFill=0;" edge="1" parent="1" source="dKn69-0n__2WGSJopjcO-93" target="dKn69-0n__2WGSJopjcO-102">
          <mxGeometry relative="1" as="geometry" />
        </mxCell>
        <mxCell id="dKn69-0n__2WGSJopjcO-127" style="edgeStyle=orthogonalEdgeStyle;rounded=0;orthogonalLoop=1;jettySize=auto;html=1;endArrow=none;endFill=0;" edge="1" parent="1" source="dKn69-0n__2WGSJopjcO-93" target="dKn69-0n__2WGSJopjcO-126">
          <mxGeometry relative="1" as="geometry" />
        </mxCell>
        <mxCell id="dKn69-0n__2WGSJopjcO-93" value="&lt;p style=&quot;margin:0px;margin-top:4px;text-align:center;text-decoration:underline;&quot;&gt;&lt;b&gt;passageiro2: Passageiro&lt;/b&gt;&lt;/p&gt;&lt;hr&gt;&lt;p style=&quot;margin:0px;margin-left:8px;&quot;&gt;dataNascimento = 04/09/1956&lt;/p&gt;" style="verticalAlign=top;align=left;overflow=fill;fontSize=12;fontFamily=Helvetica;html=1;whiteSpace=wrap;" vertex="1" parent="1">
          <mxGeometry x="780" y="840" width="180" height="60" as="geometry" />
        </mxCell>
        <mxCell id="dKn69-0n__2WGSJopjcO-98" style="edgeStyle=orthogonalEdgeStyle;rounded=0;orthogonalLoop=1;jettySize=auto;html=1;endArrow=none;endFill=0;" edge="1" parent="1" source="dKn69-0n__2WGSJopjcO-94" target="dKn69-0n__2WGSJopjcO-89">
          <mxGeometry relative="1" as="geometry" />
        </mxCell>
        <mxCell id="dKn69-0n__2WGSJopjcO-107" style="edgeStyle=orthogonalEdgeStyle;rounded=0;orthogonalLoop=1;jettySize=auto;html=1;entryX=0.5;entryY=0;entryDx=0;entryDy=0;endArrow=none;endFill=0;" edge="1" parent="1" source="dKn69-0n__2WGSJopjcO-94" target="dKn69-0n__2WGSJopjcO-106">
          <mxGeometry relative="1" as="geometry" />
        </mxCell>
        <mxCell id="dKn69-0n__2WGSJopjcO-94" value="&lt;p style=&quot;margin:0px;margin-top:4px;text-align:center;text-decoration:underline;&quot;&gt;&lt;b&gt;passageiro3: Passageiro&lt;/b&gt;&lt;/p&gt;&lt;hr&gt;&lt;p style=&quot;margin:0px;margin-left:8px;&quot;&gt;dataNascimento = 12/08/1961&lt;/p&gt;" style="verticalAlign=top;align=left;overflow=fill;fontSize=12;fontFamily=Helvetica;html=1;whiteSpace=wrap;" vertex="1" parent="1">
          <mxGeometry x="740" y="1050" width="180" height="60" as="geometry" />
        </mxCell>
        <mxCell id="dKn69-0n__2WGSJopjcO-99" value="&lt;p style=&quot;margin:0px;margin-top:4px;text-align:center;text-decoration:underline;&quot;&gt;&lt;b&gt;telefone1: Telefone&lt;/b&gt;&lt;/p&gt;&lt;hr&gt;&lt;p style=&quot;margin:0px;margin-left:8px;&quot;&gt;numero = 11 9653-3645&lt;/p&gt;" style="verticalAlign=top;align=left;overflow=fill;fontSize=12;fontFamily=Helvetica;html=1;whiteSpace=wrap;" vertex="1" parent="1">
          <mxGeometry x="750" y="742" width="160" height="55" as="geometry" />
        </mxCell>
        <mxCell id="dKn69-0n__2WGSJopjcO-101" value="&lt;p style=&quot;margin:0px;margin-top:4px;text-align:center;text-decoration:underline;&quot;&gt;&lt;b&gt;telefone2: Telefone&lt;/b&gt;&lt;/p&gt;&lt;hr&gt;&lt;p style=&quot;margin:0px;margin-left:8px;&quot;&gt;numero = 11 8895-1811&lt;/p&gt;" style="verticalAlign=top;align=left;overflow=fill;fontSize=12;fontFamily=Helvetica;html=1;whiteSpace=wrap;" vertex="1" parent="1">
          <mxGeometry x="940" y="742.5" width="160" height="55" as="geometry" />
        </mxCell>
        <mxCell id="dKn69-0n__2WGSJopjcO-102" value="&lt;p style=&quot;margin:0px;margin-top:4px;text-align:center;text-decoration:underline;&quot;&gt;&lt;b&gt;telefone3: Telefone&lt;/b&gt;&lt;/p&gt;&lt;hr&gt;&lt;p style=&quot;margin:0px;margin-left:8px;&quot;&gt;numero = 11 9653-3645&lt;/p&gt;" style="verticalAlign=top;align=left;overflow=fill;fontSize=12;fontFamily=Helvetica;html=1;whiteSpace=wrap;" vertex="1" parent="1">
          <mxGeometry x="790" y="950" width="160" height="55" as="geometry" />
        </mxCell>
        <mxCell id="dKn69-0n__2WGSJopjcO-106" value="&lt;p style=&quot;margin:0px;margin-top:4px;text-align:center;text-decoration:underline;&quot;&gt;&lt;b&gt;telefone4: Telefone&lt;/b&gt;&lt;/p&gt;&lt;hr&gt;&lt;p style=&quot;margin:0px;margin-left:8px;&quot;&gt;numero = 11 9233-1155&lt;/p&gt;" style="verticalAlign=top;align=left;overflow=fill;fontSize=12;fontFamily=Helvetica;html=1;whiteSpace=wrap;" vertex="1" parent="1">
          <mxGeometry x="750" y="1150" width="160" height="55" as="geometry" />
        </mxCell>
        <mxCell id="dKn69-0n__2WGSJopjcO-121" style="edgeStyle=orthogonalEdgeStyle;rounded=0;orthogonalLoop=1;jettySize=auto;html=1;endArrow=none;endFill=0;" edge="1" parent="1" source="dKn69-0n__2WGSJopjcO-118" target="dKn69-0n__2WGSJopjcO-120">
          <mxGeometry relative="1" as="geometry" />
        </mxCell>
        <mxCell id="dKn69-0n__2WGSJopjcO-133" style="edgeStyle=orthogonalEdgeStyle;rounded=0;orthogonalLoop=1;jettySize=auto;html=1;entryX=0;entryY=0.5;entryDx=0;entryDy=0;endArrow=none;endFill=0;" edge="1" parent="1" source="dKn69-0n__2WGSJopjcO-118" target="dKn69-0n__2WGSJopjcO-132">
          <mxGeometry relative="1" as="geometry">
            <Array as="points">
              <mxPoint x="70" y="840" />
              <mxPoint x="70" y="919" />
            </Array>
          </mxGeometry>
        </mxCell>
        <mxCell id="dKn69-0n__2WGSJopjcO-118" value="&lt;p style=&quot;margin:0px;margin-top:4px;text-align:center;text-decoration:underline;&quot;&gt;&lt;b&gt;passageiro4: Passageiro&lt;/b&gt;&lt;/p&gt;&lt;hr&gt;&lt;p style=&quot;margin:0px;margin-left:8px;&quot;&gt;dataNascimento = 01/01/1979&lt;/p&gt;" style="verticalAlign=top;align=left;overflow=fill;fontSize=12;fontFamily=Helvetica;html=1;whiteSpace=wrap;" vertex="1" parent="1">
          <mxGeometry x="-160" y="810" width="180" height="60" as="geometry" />
        </mxCell>
        <mxCell id="dKn69-0n__2WGSJopjcO-120" value="&lt;p style=&quot;margin:0px;margin-top:4px;text-align:center;text-decoration:underline;&quot;&gt;&lt;b&gt;telefone5: Telefone&lt;/b&gt;&lt;/p&gt;&lt;hr&gt;&lt;p style=&quot;margin:0px;margin-left:8px;&quot;&gt;numero = 11 9653-8856&lt;/p&gt;" style="verticalAlign=top;align=left;overflow=fill;fontSize=12;fontFamily=Helvetica;html=1;whiteSpace=wrap;" vertex="1" parent="1">
          <mxGeometry x="-390" y="812" width="160" height="55" as="geometry" />
        </mxCell>
        <mxCell id="dKn69-0n__2WGSJopjcO-125" style="edgeStyle=orthogonalEdgeStyle;rounded=0;orthogonalLoop=1;jettySize=auto;html=1;endArrow=none;endFill=0;" edge="1" parent="1" source="dKn69-0n__2WGSJopjcO-123" target="dKn69-0n__2WGSJopjcO-90">
          <mxGeometry relative="1" as="geometry">
            <Array as="points">
              <mxPoint x="470" y="659" />
              <mxPoint x="470" y="720" />
            </Array>
          </mxGeometry>
        </mxCell>
        <mxCell id="dKn69-0n__2WGSJopjcO-123" value="&lt;p style=&quot;margin:0px;margin-top:4px;text-align:center;text-decoration:underline;&quot;&gt;&lt;b&gt;reserva1: Reserva&lt;/b&gt;&lt;/p&gt;&lt;hr&gt;&lt;p style=&quot;margin:0px;margin-left:8px;&quot;&gt;reserva = &quot;126-A&quot;&lt;/p&gt;" style="verticalAlign=top;align=left;overflow=fill;fontSize=12;fontFamily=Helvetica;html=1;whiteSpace=wrap;" vertex="1" parent="1">
          <mxGeometry x="510" y="631" width="160" height="57" as="geometry" />
        </mxCell>
        <mxCell id="dKn69-0n__2WGSJopjcO-128" style="edgeStyle=orthogonalEdgeStyle;rounded=0;orthogonalLoop=1;jettySize=auto;html=1;entryX=1;entryY=0.75;entryDx=0;entryDy=0;endArrow=none;endFill=0;" edge="1" parent="1" source="dKn69-0n__2WGSJopjcO-126" target="dKn69-0n__2WGSJopjcO-90">
          <mxGeometry relative="1" as="geometry">
            <Array as="points">
              <mxPoint x="470" y="871" />
              <mxPoint x="470" y="747" />
            </Array>
          </mxGeometry>
        </mxCell>
        <mxCell id="dKn69-0n__2WGSJopjcO-126" value="&lt;p style=&quot;margin:0px;margin-top:4px;text-align:center;text-decoration:underline;&quot;&gt;&lt;b&gt;reserva2: Reserva&lt;/b&gt;&lt;/p&gt;&lt;hr&gt;&lt;p style=&quot;margin:0px;margin-left:8px;&quot;&gt;reserva = &quot;126-B&quot;&lt;/p&gt;" style="verticalAlign=top;align=left;overflow=fill;fontSize=12;fontFamily=Helvetica;html=1;whiteSpace=wrap;" vertex="1" parent="1">
          <mxGeometry x="530" y="842" width="160" height="57" as="geometry" />
        </mxCell>
        <mxCell id="dKn69-0n__2WGSJopjcO-131" style="edgeStyle=orthogonalEdgeStyle;rounded=0;orthogonalLoop=1;jettySize=auto;html=1;endArrow=none;endFill=0;" edge="1" parent="1" source="dKn69-0n__2WGSJopjcO-129" target="dKn69-0n__2WGSJopjcO-94">
          <mxGeometry relative="1" as="geometry" />
        </mxCell>
        <mxCell id="dKn69-0n__2WGSJopjcO-129" value="&lt;p style=&quot;margin:0px;margin-top:4px;text-align:center;text-decoration:underline;&quot;&gt;&lt;b&gt;reserva3: Reserva&lt;/b&gt;&lt;/p&gt;&lt;hr&gt;&lt;p style=&quot;margin:0px;margin-left:8px;&quot;&gt;reserva = &quot;125-A&quot;&lt;/p&gt;" style="verticalAlign=top;align=left;overflow=fill;fontSize=12;fontFamily=Helvetica;html=1;whiteSpace=wrap;" vertex="1" parent="1">
          <mxGeometry x="520" y="1052" width="160" height="57" as="geometry" />
        </mxCell>
        <mxCell id="dKn69-0n__2WGSJopjcO-134" style="edgeStyle=orthogonalEdgeStyle;rounded=0;orthogonalLoop=1;jettySize=auto;html=1;endArrow=none;endFill=0;" edge="1" parent="1" source="dKn69-0n__2WGSJopjcO-132" target="dKn69-0n__2WGSJopjcO-91">
          <mxGeometry relative="1" as="geometry" />
        </mxCell>
        <mxCell id="dKn69-0n__2WGSJopjcO-132" value="&lt;p style=&quot;margin:0px;margin-top:4px;text-align:center;text-decoration:underline;&quot;&gt;&lt;b&gt;reserva4: Reserva&lt;/b&gt;&lt;/p&gt;&lt;hr&gt;&lt;p style=&quot;margin:0px;margin-left:8px;&quot;&gt;reserva = &quot;125-B&quot;&lt;/p&gt;" style="verticalAlign=top;align=left;overflow=fill;fontSize=12;fontFamily=Helvetica;html=1;whiteSpace=wrap;" vertex="1" parent="1">
          <mxGeometry x="120" y="890" width="160" height="57" as="geometry" />
        </mxCell>
      </root>
    </mxGraphModel>
  </diagram>
</mxfile>
